<svg xmlns="http://www.w3.org/2000/svg" xmlns:xlink="http://www.w3.org/1999/xlink" width="36" height="36" viewBox="0 0 36 36">
  <metadata><?xpacket begin="﻿" id="W5M0MpCehiHzreSzNTczkc9d"?>
<x:xmpmeta xmlns:x="adobe:ns:meta/" x:xmptk="Adobe XMP Core 5.6-c138 79.159824, 2016/09/14-01:09:01        ">
   <rdf:RDF xmlns:rdf="http://www.w3.org/1999/02/22-rdf-syntax-ns#">
      <rdf:Description rdf:about=""/>
   </rdf:RDF>
</x:xmpmeta>
                                                                                                    
                                                                                                    
                                                                                                    
                                                                                                    
                                                                                                    
                                                                                                    
                                                                                                    
                                                                                                    
                                                                                                    
                                                                                                    
                                                                                                    
                                                                                                    
                                                                                                    
                                                                                                    
                                                                                                    
                                                                                                    
                                                                                                    
                                                                                                    
                                                                                                    
                                                                                                    
                           
<?xpacket end="w"?></metadata>
<defs>
    <style>
      .cls-1 {
        fill-rule: evenodd;
        filter: url(#filter);
      }
    </style>
    <filter id="filter" x="606" y="3306" width="36" height="36" filterUnits="userSpaceOnUse">
      <feFlood result="flood" flood-color="#1be7e8"/>
      <feComposite result="composite" operator="in" in2="SourceGraphic"/>
      <feBlend result="blend" in2="SourceGraphic"/>
    </filter>
  </defs>
  <path id="ic_instagram_copy" data-name="ic_instagram copy" class="cls-1" d="M633.692,3315.69a1.385,1.385,0,0,1-1.384-1.38v-2.77a1.387,1.387,0,0,1,1.384-1.39h2.769a1.387,1.387,0,0,1,1.385,1.39v2.77a1.385,1.385,0,0,1-1.385,1.38h-2.769ZM624,3318.72a5.286,5.286,0,0,0-2.732.78,2.537,2.537,0,0,1,.781-0.13,2.68,2.68,0,1,1-2.676,2.68,2.539,2.539,0,0,1,.13-0.78,5.2,5.2,0,0,0-.781,2.73A5.28,5.28,0,1,0,624,3318.72Zm0-3.03a8.31,8.31,0,1,1-8.308,8.31,8.31,8.31,0,0,1,8.308-8.31m0-2.77A11.08,11.08,0,1,0,635.077,3324,11.091,11.091,0,0,0,624,3312.92Zm11.25-6.92h-22.5a6.748,6.748,0,0,0-6.75,6.75v22.5a6.748,6.748,0,0,0,6.75,6.75h22.5a6.748,6.748,0,0,0,6.75-6.75v-22.5A6.748,6.748,0,0,0,635.25,3306Zm3.981,12.46h-9.052a8.308,8.308,0,1,1-12.358,0h-9.052v-5.71a3.982,3.982,0,0,1,3.981-3.98h22.5a3.981,3.981,0,0,1,3.981,3.98v5.71Z" transform="translate(-606 -3306)"/>
</svg>
