<svg id="scroll_down" data-name="scroll down" xmlns="http://www.w3.org/2000/svg" xmlns:xlink="http://www.w3.org/1999/xlink" width="41" height="33" viewBox="0 0 41 33">
  <metadata><?xpacket begin="﻿" id="W5M0MpCehiHzreSzNTczkc9d"?>
<x:xmpmeta xmlns:x="adobe:ns:meta/" x:xmptk="Adobe XMP Core 5.6-c138 79.159824, 2016/09/14-01:09:01        ">
   <rdf:RDF xmlns:rdf="http://www.w3.org/1999/02/22-rdf-syntax-ns#">
      <rdf:Description rdf:about=""/>
   </rdf:RDF>
</x:xmpmeta>
                                                                                                    
                                                                                                    
                                                                                                    
                                                                                                    
                                                                                                    
                                                                                                    
                                                                                                    
                                                                                                    
                                                                                                    
                                                                                                    
                                                                                                    
                                                                                                    
                                                                                                    
                                                                                                    
                                                                                                    
                                                                                                    
                                                                                                    
                                                                                                    
                                                                                                    
                                                                                                    
                           
<?xpacket end="w"?></metadata>
<defs>
    <style>
      .cls-1 {
        fill: #fe557c;
        fill-opacity: 0;
        stroke: #9785e7;
        stroke-linejoin: round;
        stroke-width: 1px;
      }

      .cls-1, .cls-2 {
        fill-rule: evenodd;
      }

      .cls-2 {
        filter: url(#filter);
      }
    </style>
    <filter id="filter" x="13" y="13" width="18" height="10" filterUnits="userSpaceOnUse">
      <feFlood result="flood" flood-color="#9785e7"/>
      <feComposite result="composite" operator="in" in2="SourceGraphic"/>
      <feBlend result="blend" in2="SourceGraphic"/>
    </filter>
  </defs>
  <path id="Фигура_1" data-name="Фигура 1" class="cls-1" d="M36.484,2L7.333,2C4.785,2.064,2.2,5.374,2.013,7.9,2,8.048,2,8.295,2.006,8.438c0.047,1.9,1.25,3.54,2.214,4.818,0.167,0.223.33,0.462,0.475,0.667,1.28,1.8,2.642,3.589,3.959,5.305,1.137,1.482,2.314,3.022,3.419,4.55C13.1,25.2,14.146,26.6,15.192,28.009l1.132,1.522c1.744,2.435,3.251,4.539,6.327,4.462,3.192-.081,4.812-2.713,6.08-4.776,0.208-.31.413-0.627,0.619-0.945,0.24-.37.48-0.741,0.724-1.1,2.156-3.178,4.26-6.292,6.3-9.453,0.284-.438.573-0.879,0.863-1.323C38,15.239,38.784,14.043,39.5,12.853c0.169-.279.387-0.578,0.615-0.9,0.86-1.194,1.93-2.68,1.885-4.446a4.84,4.84,0,0,0-.594-2.207C40.531,3.841,38.711,1.948,36.484,2Z" transform="translate(-1.5 -1.5)"/>
  <path id="Forma_1" data-name="Forma 1" class="cls-2" d="M30.8,14.13a0.676,0.676,0,0,0,0-.931,0.621,0.621,0,0,0-.9,0L22,21.385,14.086,13.2a0.621,0.621,0,0,0-.9,0,0.675,0.675,0,0,0,0,.931L21.546,22.8a0.621,0.621,0,0,0,.9,0Z" transform="translate(-1.5 -1.5)"/>
</svg>
